<svg width="212" height="39" viewBox="0 0 212 39" fill="none" xmlns="http://www.w3.org/2000/svg">
<path d="M0.28 30L6.24 2H15.4C17.2667 2 19 2.32 20.6 2.96C22.2 3.57333 23.56 4.42666 24.68 5.52C25.8267 6.61333 26.72 7.93333 27.36 9.48C28.0267 11 28.36 12.6667 28.36 14.48C28.36 16.5867 27.92 18.5867 27.04 20.48C26.1867 22.3467 25.0267 23.9867 23.56 25.4C22.12 26.8133 20.4133 27.9333 18.44 28.76C16.4667 29.5867 14.3867 30 12.2 30H0.28ZM14.76 7.16H10.84L7.04 24.84H12.68C14.0133 24.84 15.28 24.5867 16.48 24.08C17.68 23.5467 18.72 22.84 19.6 21.96C20.48 21.0533 21.1733 20 21.68 18.8C22.1867 17.5733 22.44 16.2667 22.44 14.88C22.44 12.64 21.72 10.8 20.28 9.36C18.84 7.89333 17 7.16 14.76 7.16ZM38.5044 9.16L35.9844 21.08C35.691 22.44 35.8644 23.5467 36.5044 24.4C37.171 25.2533 38.171 25.68 39.5044 25.68C40.331 25.68 41.1044 25.52 41.8244 25.2C42.571 24.8533 43.251 24.3867 43.8644 23.8L46.9444 9.16H52.3444L47.9044 30H42.5444L42.8644 28.52C42.0377 29.1067 41.1444 29.56 40.1844 29.88C39.2244 30.1733 38.2244 30.32 37.1844 30.32C35.9577 30.32 34.8644 30.1067 33.9044 29.68C32.9444 29.2267 32.171 28.6133 31.5844 27.84C30.9977 27.0667 30.5977 26.1467 30.3844 25.08C30.1977 24.0133 30.2377 22.8533 30.5044 21.6L33.1444 9.16H38.5044ZM67.3856 30L67.6256 28.96C66.879 29.3867 66.0923 29.72 65.2656 29.96C64.439 30.1733 63.599 30.28 62.7456 30.28C61.439 30.28 60.2123 30.04 59.0656 29.56C57.9456 29.0533 56.9723 28.3733 56.1456 27.52C55.319 26.6667 54.6656 25.6533 54.1856 24.48C53.7056 23.28 53.4656 22 53.4656 20.64C53.4656 19.0133 53.7723 17.4933 54.3856 16.08C54.999 14.64 55.8256 13.3867 56.8656 12.32C57.9056 11.2533 59.1323 10.4133 60.5456 9.8C61.959 9.18667 63.4656 8.88 65.0656 8.88C66.2923 8.88 67.439 9.06667 68.5056 9.44C69.5723 9.81333 70.519 10.3467 71.3456 11.04L73.2656 2L78.9056 0.799999L72.7056 30H67.3856ZM58.7456 20.16C58.7456 21.7333 59.2656 23.04 60.3056 24.08C61.3456 25.12 62.639 25.64 64.1856 25.64C65.0123 25.64 65.799 25.5067 66.5456 25.24C67.2923 24.9467 67.9723 24.5467 68.5856 24.04L70.3456 15.76C69.7856 15.0933 69.0523 14.56 68.1456 14.16C67.2656 13.76 66.3056 13.56 65.2656 13.56C63.4523 13.56 61.9056 14.2 60.6256 15.48C59.3723 16.76 58.7456 18.32 58.7456 20.16ZM96.6313 27.84C95.3513 28.7467 94.0846 29.4133 92.8313 29.84C91.5779 30.24 90.2046 30.44 88.7113 30.44C87.1913 30.44 85.7779 30.2 84.4713 29.72C83.1646 29.2133 82.0446 28.52 81.1113 27.64C80.1779 26.76 79.4446 25.7067 78.9113 24.48C78.4046 23.2533 78.1513 21.92 78.1513 20.48C78.1513 18.9067 78.4446 17.4133 79.0313 16C79.6446 14.56 80.4579 13.32 81.4713 12.28C82.4846 11.2133 83.6713 10.3733 85.0313 9.76C86.4179 9.14666 87.8846 8.84 89.4313 8.84C90.7913 8.84 92.0579 9.09333 93.2313 9.6C94.4046 10.1067 95.4046 10.8 96.2313 11.68C97.0579 12.56 97.6979 13.6267 98.1512 14.88C98.6313 16.1067 98.8713 17.44 98.8713 18.88C98.8713 19.1733 98.8579 19.4933 98.8313 19.84C98.8046 20.16 98.7513 20.68 98.6713 21.4H83.4713C83.7113 22.7333 84.3379 23.8133 85.3513 24.64C86.3913 25.4667 87.6446 25.88 89.1113 25.88C89.9913 25.88 90.8179 25.7467 91.5913 25.48C92.3646 25.2133 93.0446 24.84 93.6313 24.36L96.6313 27.84ZM89.1513 13.4C87.9513 13.4 86.8713 13.7867 85.9113 14.56C84.9513 15.3067 84.2579 16.2933 83.8313 17.52H93.8313C93.5913 16.2933 93.0446 15.3067 92.1913 14.56C91.3646 13.7867 90.3513 13.4 89.1513 13.4ZM99.3572 26.88L102.437 23.4C103.557 24.36 104.677 25.08 105.797 25.56C106.944 26.04 108.104 26.28 109.277 26.28C110.371 26.28 111.251 26.0667 111.917 25.64C112.611 25.2133 112.957 24.6667 112.957 24C112.957 23.5467 112.757 23.1733 112.357 22.88C111.984 22.56 111.424 22.3067 110.677 22.12L106.837 21.28C105.131 20.9067 103.824 20.24 102.917 19.28C102.011 18.2933 101.557 17.08 101.557 15.64C101.557 13.56 102.304 11.9067 103.797 10.68C105.291 9.45333 107.304 8.84 109.837 8.84C111.517 8.84 113.131 9.12 114.677 9.68C116.224 10.2133 117.611 11 118.837 12.04L115.837 15.36C114.771 14.56 113.691 13.96 112.597 13.56C111.531 13.1333 110.491 12.92 109.477 12.92C108.517 12.92 107.757 13.1067 107.197 13.48C106.637 13.8533 106.357 14.36 106.357 15C106.357 15.5067 106.544 15.92 106.917 16.24C107.291 16.5333 107.931 16.7733 108.837 16.96L112.637 17.8C114.397 18.1733 115.744 18.8533 116.677 19.84C117.611 20.8 118.077 21.9733 118.077 23.36C118.077 24.3733 117.851 25.32 117.397 26.2C116.944 27.0533 116.317 27.8 115.517 28.44C114.744 29.0533 113.811 29.5467 112.717 29.92C111.651 30.2667 110.491 30.44 109.237 30.44C107.317 30.44 105.477 30.12 103.717 29.48C101.957 28.84 100.504 27.9733 99.3572 26.88ZM119.451 30L125.411 2L131.011 0.799999L128.931 10.64C129.758 10.0533 130.651 9.61333 131.611 9.32C132.571 9 133.558 8.84 134.571 8.84C135.798 8.84 136.891 9.06667 137.851 9.52C138.811 9.94667 139.585 10.5467 140.171 11.32C140.758 12.0933 141.158 13.0133 141.371 14.08C141.585 15.1467 141.558 16.3067 141.291 17.56L138.651 30H133.251L135.811 18.08C136.078 16.72 135.878 15.6133 135.211 14.76C134.571 13.9067 133.598 13.48 132.291 13.48C131.465 13.48 130.678 13.64 129.931 13.96C129.185 14.28 128.518 14.7467 127.931 15.36L124.811 30H119.451ZM150.253 30.24C148.093 30.24 146.373 29.72 145.093 28.68C143.813 27.6133 143.173 26.2 143.173 24.44C143.173 22.3333 143.959 20.6667 145.533 19.44C147.106 18.1867 149.239 17.56 151.933 17.56C152.919 17.56 153.893 17.6533 154.853 17.84C155.839 18.0267 156.759 18.28 157.613 18.6L157.853 17.56C158.146 16.1467 157.933 15.0933 157.213 14.4C156.493 13.68 155.293 13.32 153.613 13.32C152.866 13.32 152.013 13.4267 151.053 13.64C150.119 13.8533 149.013 14.2 147.733 14.68L146.413 10.56C147.933 9.97333 149.386 9.53333 150.773 9.24C152.186 8.94667 153.519 8.8 154.773 8.8C157.946 8.8 160.266 9.57333 161.733 11.12C163.226 12.6667 163.693 14.7867 163.133 17.48L160.493 30H155.213L155.493 28.72C154.639 29.2267 153.786 29.6133 152.933 29.88C152.079 30.12 151.186 30.24 150.253 30.24ZM148.253 23.96C148.253 24.7067 148.586 25.2933 149.253 25.72C149.946 26.1467 150.893 26.36 152.093 26.36C152.839 26.36 153.559 26.2667 154.253 26.08C154.946 25.8933 155.599 25.6 156.213 25.2L156.893 22.08C156.226 21.7867 155.493 21.56 154.693 21.4C153.919 21.24 153.133 21.16 152.333 21.16C151.079 21.16 150.079 21.4133 149.333 21.92C148.613 22.4267 148.253 23.1067 148.253 23.96ZM162.729 38.36L168.929 9.16H174.249L174.049 10.2C174.796 9.77333 175.569 9.45333 176.369 9.24C177.196 9 178.036 8.88 178.889 8.88C180.196 8.88 181.423 9.13333 182.569 9.64C183.716 10.12 184.689 10.7867 185.489 11.64C186.316 12.4933 186.969 13.52 187.449 14.72C187.929 15.8933 188.169 17.16 188.169 18.52C188.169 20.1467 187.863 21.68 187.249 23.12C186.636 24.5333 185.809 25.7733 184.769 26.84C183.729 27.9067 182.503 28.7467 181.089 29.36C179.676 29.9733 178.169 30.28 176.569 30.28C175.343 30.28 174.196 30.0933 173.129 29.72C172.063 29.32 171.129 28.7467 170.329 28L168.089 38.36H162.729ZM177.489 13.52C176.663 13.52 175.876 13.6533 175.129 13.92C174.383 14.1867 173.703 14.5733 173.089 15.08L171.329 23.28C171.836 24 172.543 24.5733 173.449 25C174.356 25.4 175.329 25.6 176.369 25.6C178.209 25.6 179.756 24.96 181.009 23.68C182.289 22.4 182.929 20.84 182.929 19C182.929 17.4533 182.409 16.16 181.369 15.12C180.356 14.0533 179.063 13.52 177.489 13.52ZM208.975 27.84C207.695 28.7467 206.428 29.4133 205.175 29.84C203.922 30.24 202.548 30.44 201.055 30.44C199.535 30.44 198.122 30.2 196.815 29.72C195.508 29.2133 194.388 28.52 193.455 27.64C192.522 26.76 191.788 25.7067 191.255 24.48C190.748 23.2533 190.495 21.92 190.495 20.48C190.495 18.9067 190.788 17.4133 191.375 16C191.988 14.56 192.802 13.32 193.815 12.28C194.828 11.2133 196.015 10.3733 197.375 9.76C198.762 9.14666 200.228 8.84 201.775 8.84C203.135 8.84 204.402 9.09333 205.575 9.6C206.748 10.1067 207.748 10.8 208.575 11.68C209.402 12.56 210.042 13.6267 210.495 14.88C210.975 16.1067 211.215 17.44 211.215 18.88C211.215 19.1733 211.202 19.4933 211.175 19.84C211.148 20.16 211.095 20.68 211.015 21.4H195.815C196.055 22.7333 196.682 23.8133 197.695 24.64C198.735 25.4667 199.988 25.88 201.455 25.88C202.335 25.88 203.162 25.7467 203.935 25.48C204.708 25.2133 205.388 24.84 205.975 24.36L208.975 27.84ZM201.495 13.4C200.295 13.4 199.215 13.7867 198.255 14.56C197.295 15.3067 196.602 16.2933 196.175 17.52H206.175C205.935 16.2933 205.388 15.3067 204.535 14.56C203.708 13.7867 202.695 13.4 201.495 13.4Z" fill="#222222"/>
<path d="M0 35H212.415V37H0V35Z" fill="#222222"/>
</svg>
