<?xml version="1.0" standalone="no"?>
<!DOCTYPE svg PUBLIC "-//W3C//DTD SVG 20010904//EN"
 "http://www.w3.org/TR/2001/REC-SVG-20010904/DTD/svg10.dtd">
<svg version="1.0" xmlns="http://www.w3.org/2000/svg"
 width="1280.000000pt" height="824.000000pt" viewBox="0 0 1280.000000 824.000000"
 preserveAspectRatio="xMidYMid meet">
<metadata>
Created by potrace 1.16, written by Peter Selinger 2001-2019
</metadata>
<g transform="translate(0.000000,824.000000) scale(0.100000,-0.100000)"
fill="#000000" stroke="none">
<path d="M4657 5819 c-21 -24 -38 -36 -42 -30 -9 15 -25 14 -25 -2 0 -12 -7
-16 -75 -50 -43 -21 -211 -161 -344 -285 -117 -109 -191 -193 -191 -217 0 -8
36 -42 81 -77 45 -35 107 -84 138 -110 56 -45 59 -47 82 -31 13 8 7 -1 -14
-22 -21 -20 -36 -42 -34 -49 2 -6 18 -21 35 -33 27 -18 37 -20 66 -11 34 11
36 10 228 -142 495 -393 881 -693 909 -707 14 -7 34 -22 44 -33 17 -19 20 -19
42 -5 13 9 22 11 21 6 -2 -5 21 -28 50 -51 46 -37 51 -44 40 -60 -7 -9 -37
-49 -66 -88 l-54 -71 -54 41 c-30 22 -54 45 -54 51 0 5 10 26 22 46 17 27 18
33 5 22 -14 -11 -17 -11 -17 0 0 8 -9 20 -21 27 -18 11 -23 11 -34 -4 -13 -18
-87 33 -714 490 -173 127 -272 193 -313 211 -18 8 -53 28 -78 45 -43 29 -117
56 -127 47 -2 -3 41 -42 97 -88 l101 -82 -33 -21 c-44 -28 -67 -56 -68 -83 0
-13 -4 -23 -9 -23 -8 0 -18 -20 -26 -50 -1 -3 -7 -18 -14 -35 -24 -55 -39
-139 -34 -190 2 -27 6 -75 8 -105 1 -30 4 -57 5 -60 1 -3 2 -9 1 -13 -2 -13
20 -91 28 -97 4 -3 32 -39 63 -80 30 -41 79 -100 107 -130 49 -53 63 -84 40
-92 -6 -2 -12 -24 -14 -48 -1 -25 -4 -47 -5 -50 -7 -14 4 -47 21 -63 10 -10
19 -24 19 -32 0 -8 8 -15 18 -15 13 0 14 -2 3 -9 -10 -7 -8 -12 10 -25 13 -9
20 -16 15 -16 -5 0 -3 -6 3 -13 6 -8 8 -17 4 -21 -4 -4 1 -4 11 0 14 5 17 4
12 -4 -4 -7 -2 -12 3 -12 6 0 10 -3 10 -7 -3 -18 1 -33 9 -31 4 2 8 0 10 -4 1
-5 20 -26 42 -48 23 -23 38 -46 34 -52 -4 -7 -3 -8 4 -4 7 4 12 3 12 -2 0 -5
10 -12 21 -15 15 -4 20 -11 16 -21 -4 -10 -1 -16 9 -16 8 0 19 -10 24 -22 5
-13 9 -18 10 -13 0 6 13 -4 28 -21 15 -17 39 -39 55 -48 15 -10 27 -25 27 -32
0 -8 4 -14 10 -14 5 0 20 -10 33 -22 39 -38 77 -68 85 -68 5 0 18 -10 30 -22
32 -34 72 -69 72 -64 0 5 35 -23 79 -64 15 -14 44 -38 66 -55 21 -16 60 -49
87 -72 26 -23 73 -61 105 -85 32 -24 67 -51 78 -60 11 -9 45 -34 75 -56 30
-22 66 -50 80 -62 14 -12 61 -48 105 -82 44 -33 103 -77 130 -98 96 -74 204
-155 231 -175 15 -11 53 -39 85 -62 31 -24 61 -43 67 -43 5 0 21 -10 36 -21
25 -20 77 -37 136 -45 13 -1 26 -7 28 -12 1 -5 14 -7 27 -4 14 2 32 -1 40 -8
8 -7 33 -14 55 -16 53 -5 64 -8 70 -16 3 -4 22 -10 41 -12 93 -12 275 -88 262
-109 -3 -6 -1 -7 5 -3 6 3 13 2 17 -4 4 -6 11 -8 16 -5 5 4 9 1 9 -5 0 -6 4
-9 9 -6 5 3 14 -1 21 -9 7 -8 23 -15 37 -15 13 0 36 -6 51 -14 15 -8 44 -13
65 -11 21 1 40 -2 43 -6 6 -10 72 -4 141 12 26 6 55 12 63 14 8 2 29 8 45 15
17 6 53 13 81 16 29 2 74 11 100 20 27 9 54 17 59 18 22 4 205 100 205 108 0
5 4 7 9 3 6 -3 15 3 20 14 11 19 11 19 60 -2 46 -19 55 -19 107 -8 185 42 603
339 920 656 239 239 311 365 230 404 -41 19 -108 -4 -216 -75 -47 -31 -109
-69 -138 -85 -30 -17 -65 -37 -78 -46 -26 -17 -33 -3 -9 17 8 7 13 16 10 20
-3 5 5 17 17 27 30 24 26 59 -8 66 -26 5 -33 -7 -9 -17 8 -3 15 -13 15 -23 -1
-15 -5 -13 -25 9 -23 27 -25 39 -10 83 5 16 4 15 -7 -3 -8 -12 -18 -19 -22
-15 -4 4 -6 2 -4 -6 4 -18 -30 -27 -44 -13 -7 7 -4 10 8 9 11 -1 18 4 17 10
-2 7 0 12 5 12 18 -3 32 2 32 12 0 6 -9 8 -21 4 -13 -4 -19 -3 -16 2 4 5 0 10
-8 10 -8 0 -16 -6 -19 -14 -7 -18 -23 -17 -23 2 0 8 3 12 7 10 3 -2 6 5 6 16
0 10 -4 19 -8 19 -4 0 -8 -4 -8 -10 0 -5 -4 -10 -10 -10 -5 0 -10 7 -10 16 0
9 -6 14 -12 11 -7 -2 -12 -10 -10 -16 5 -23 -18 0 -34 34 -9 19 -12 39 -8 46
5 8 3 9 -5 4 -7 -4 -11 -18 -9 -30 4 -16 1 -22 -9 -18 -7 3 -11 8 -8 12 2 4
-5 15 -16 24 -10 9 -19 13 -19 9 0 -4 -9 -8 -20 -9 -22 -2 -27 13 -7 20 7 2 0
10 -16 18 -22 10 -28 18 -24 36 3 18 1 21 -9 12 -7 -6 -10 -18 -8 -27 5 -15 4
-15 -9 0 -8 10 -16 15 -19 12 -3 -3 -9 7 -12 22 -5 20 -10 24 -19 15 -18 -18
-25 -13 -19 14 4 23 2 25 -22 21 -20 -4 -26 -1 -26 14 0 10 6 21 13 24 6 3 -5
3 -27 1 l-38 -5 17 26 c9 15 12 24 7 20 -6 -3 -12 -1 -14 6 -3 8 -9 8 -24 0
-17 -10 -17 -11 -1 -12 9 0 17 -3 17 -7 0 -11 -20 -40 -20 -30 0 4 -10 2 -22
-5 -13 -7 -26 -11 -30 -10 -5 1 -8 -2 -8 -7 0 -10 -61 -51 -75 -51 -5 0 16 18
46 40 74 56 75 72 1 21 -34 -22 -65 -41 -69 -41 -9 0 48 49 58 50 4 0 26 18
49 40 40 37 41 40 19 41 -13 1 -29 1 -35 0 -14 -2 -13 31 1 41 9 7 6 8 -20 8
-3 0 -5 -3 -4 -6 1 -8 -22 -24 -35 -24 -5 0 -3 7 5 16 10 13 10 17 -1 24 -9 5
-20 5 -27 -2 -7 -6 -13 -9 -14 -7 -6 31 -6 40 2 45 24 14 6 29 -36 30 -32 1
-45 -3 -49 -15 -3 -11 -4 -9 -3 4 1 11 -2 26 -7 34 -5 8 -4 16 5 21 9 6 4 11
-17 15 -57 13 -63 16 -70 37 -6 19 -7 19 -16 5 -13 -24 -35 -21 -43 5 -5 15
-1 26 14 37 l21 16 -24 0 c-16 0 -22 -4 -18 -15 4 -12 2 -13 -9 -2 -19 17 -34
15 -19 -3 7 -9 8 -15 2 -15 -11 0 -20 18 -18 35 0 5 3 9 7 8 3 -1 11 8 18 20
14 21 14 21 -14 3 -29 -19 -45 -15 -26 7 6 8 8 22 5 31 -6 16 -8 16 -31 0 -20
-12 -27 -13 -33 -4 -4 7 -13 9 -19 6 -6 -4 -14 -1 -17 7 -3 9 -13 13 -26 9
-14 -3 -19 -1 -14 6 4 7 2 12 -4 12 -7 0 -9 -8 -5 -22 6 -17 4 -20 -9 -15 -10
4 -15 3 -11 -3 3 -6 15 -10 26 -10 12 0 17 -4 13 -11 -3 -6 -2 -14 3 -18 15
-9 24 -44 14 -59 -11 -18 -36 -5 -38 19 -2 28 -21 48 -43 46 -22 -1 -37 -30
-20 -35 8 -3 7 -8 -1 -18 -17 -21 -23 -18 -48 26 -16 29 -26 37 -39 33 -15 -6
-15 -4 2 15 15 17 22 19 39 11 16 -9 24 -6 46 15 14 14 20 26 13 26 -6 0 -12
5 -12 10 0 6 7 10 15 10 8 0 15 -5 15 -11 0 -5 5 -7 11 -3 8 4 7 9 -2 16 -11
7 -11 11 -1 15 7 2 17 14 24 26 11 21 10 21 -9 5 -21 -19 -48 -25 -38 -8 4 6
11 8 16 5 5 -4 9 -1 9 4 0 6 -9 11 -20 11 -11 0 -23 7 -27 15 -5 13 -8 13 -20
-5 -15 -21 -33 -27 -33 -9 0 5 4 8 9 5 14 -9 21 20 8 34 -9 10 -8 12 5 7 12
-4 15 -2 11 8 -3 8 -10 12 -17 8 -6 -4 -19 -9 -29 -10 -17 -3 -17 -2 -3 13 18
18 20 30 6 39 -5 3 -10 16 -10 28 0 16 -3 18 -12 9 -7 -7 -20 -12 -31 -12 -11
0 -15 -4 -11 -12 5 -7 3 -8 -6 -3 -10 6 -9 11 5 22 11 7 14 13 8 13 -7 0 -15
-5 -18 -10 -4 -6 -11 -8 -16 -5 -5 3 -6 -2 -3 -12 5 -15 4 -16 -5 -3 -15 21
-14 30 5 30 10 0 14 7 12 18 -4 17 -10 18 -40 7 -11 -4 -18 -3 -18 5 0 6 5 8
10 5 6 -4 8 3 6 17 -3 13 -5 28 -5 33 -1 6 -4 6 -9 -1 -11 -17 -62 -27 -62
-13 0 7 3 10 6 6 10 -10 34 20 34 42 0 14 -6 19 -20 18 -15 -1 -18 -6 -14 -20
4 -13 2 -17 -5 -13 -6 4 -11 2 -11 -5 0 -10 -3 -10 -11 -2 -17 17 -1 56 22 50
10 -3 19 -1 19 4 0 19 -40 8 -51 -13 -16 -32 -16 -32 -34 -14 -9 9 -12 16 -5
16 6 0 8 5 4 13 -5 8 -2 8 9 -2 15 -12 17 -11 17 3 0 9 -8 16 -20 16 -23 0
-27 18 -5 26 8 4 12 11 9 16 -9 14 -44 -42 -45 -72 0 -23 -1 -23 -8 -5 -10 24
-9 41 2 37 12 -4 -3 39 -19 55 -14 15 -28 18 -20 4 3 -5 -2 -15 -11 -22 -14
-12 -16 -12 -9 0 6 9 5 12 -4 9 -26 -8 -45 25 -42 72 2 32 0 41 -7 30 -5 -8
-7 -18 -5 -22 10 -16 -17 -7 -36 12 -11 11 -20 16 -20 10 0 -5 12 -20 26 -34
16 -15 24 -29 19 -36 -6 -9 -12 -5 -22 14 -8 15 -18 24 -24 21 -5 -4 -9 -3 -8
2 5 28 -2 32 -33 21 -18 -6 -36 -15 -39 -20 -3 -5 -12 -1 -20 8 -12 16 -12 17
4 11 11 -4 17 -2 17 8 0 8 5 15 10 15 6 0 10 5 10 11 0 5 -5 7 -12 3 -7 -5 -8
-3 -2 7 4 8 10 22 11 33 3 16 1 17 -12 6 -8 -7 -12 -16 -9 -21 3 -5 0 -9 -6
-9 -7 0 -10 6 -7 13 2 6 1 22 -4 33 -5 14 -2 30 9 45 15 24 15 24 -5 6 -11 -9
-23 -14 -27 -10 -4 5 -7 1 -6 -7 4 -27 0 -40 -11 -40 -6 0 -8 7 -5 17 4 9 1
20 -6 24 -9 6 -9 11 1 22 8 10 9 17 1 22 -5 3 -10 -1 -10 -9 0 -9 -4 -16 -10
-16 -5 0 -10 7 -10 15 0 8 -5 15 -11 15 -6 0 -8 -9 -4 -20 6 -19 -13 -29 -27
-14 -8 7 17 54 34 66 8 5 2 6 -16 2 -22 -5 -27 -4 -21 6 6 9 4 11 -4 5 -9 -5
-9 -11 -3 -17 13 -13 -6 -35 -30 -35 -15 0 -15 2 -1 24 9 13 11 23 5 23 -6 0
-15 -7 -20 -16 -6 -11 -11 -13 -16 -5 -4 6 -3 11 3 11 6 0 8 7 5 15 -4 8 -10
12 -15 9 -13 -8 -11 10 3 24 7 7 9 12 6 12 -4 0 -13 -7 -22 -15 -13 -13 -15
-13 -21 5 -4 12 -11 17 -18 14 -7 -4 -8 -3 -4 2 5 5 14 9 20 9 5 0 12 5 14 12
3 8 -4 11 -19 8 -35 -7 -58 4 -59 28 -1 17 -3 15 -9 -8 -6 -23 -8 -25 -9 -8
-1 16 -6 21 -21 18 -12 -2 -18 0 -14 6 3 5 0 16 -6 25 -10 11 -16 12 -26 3
-11 -9 -14 -8 -14 4 0 8 -6 18 -12 21 -7 3 -2 3 10 0 21 -5 23 -3 17 18 -4 12
-15 30 -26 40 -14 12 -16 18 -7 21 8 4 7 6 -3 6 -9 1 -19 -8 -22 -19 -3 -11
-1 -18 3 -15 5 3 11 1 15 -5 4 -6 11 -8 16 -5 5 4 9 -1 9 -9 0 -19 -26 -21
-33 -3 -3 9 -7 9 -20 -2 -12 -9 -17 -10 -17 -2 0 7 -5 9 -11 5 -8 -5 -8 -1 0
14 8 15 7 23 -5 33 -8 7 -12 19 -9 27 8 21 -10 12 -122 -61 l-99 -64 -56 40
c-49 35 -58 38 -79 27 -13 -6 3 14 36 45 33 31 47 48 30 37 -63 -41 -79 -44
-37 -7 38 33 41 39 27 47 -11 7 -22 5 -33 -5 -9 -8 -41 -27 -70 -41 -50 -25
-53 -26 -47 -8 6 22 42 -7 -605 495 -162 126 -305 241 -316 255 l-22 25 -11
-22 c-9 -15 -21 -21 -47 -21 -19 0 -33 4 -30 9 3 5 -6 16 -20 26 -14 9 -54 41
-90 71 -35 30 -69 52 -74 49 -6 -3 -10 -4 -10 -2 0 11 129 87 167 98 l42 12
85 -67 c54 -42 90 -64 100 -60 9 3 16 10 16 14 0 5 -73 65 -161 134 -117 92
-167 125 -180 121 -23 -8 -172 122 -164 142 8 22 -2 15 -38 -28z m2437 -1861
c12 -13 34 -33 49 -45 29 -24 33 -38 17 -48 -5 -3 -26 10 -46 29 -38 37 -49
42 -58 28 -3 -5 17 -26 45 -47 34 -25 47 -41 40 -48 -7 -7 -28 4 -66 33 -38
29 -59 40 -66 33 -7 -7 3 -21 30 -42 40 -32 51 -51 31 -51 -6 0 -36 19 -66 41
l-55 42 23 24 c13 14 22 28 20 31 -1 4 7 8 19 8 11 1 28 9 37 18 21 20 20 20
46 -6z m217 -184 c33 -25 58 -51 56 -57 -3 -7 -9 -11 -15 -10 -7 2 -27 -12
-45 -31 l-34 -34 -44 35 c-24 19 -53 42 -64 50 -19 14 -19 16 25 54 25 21 49
39 53 39 5 0 35 -21 68 -46z"/>
<path d="M6760 4724 c-82 -28 -100 -37 -100 -52 0 -15 -2 -15 -11 -2 -9 13
-10 12 -5 -2 3 -10 -2 -24 -10 -33 -23 -23 -3 -18 22 6 14 13 24 17 29 10 3
-6 0 -11 -7 -11 -7 0 -5 -5 6 -11 13 -8 20 -8 26 1 5 8 9 7 14 -5 4 -12 13
-16 29 -12 20 6 20 5 5 -7 -18 -13 -25 -32 -9 -21 5 3 16 -2 25 -10 8 -9 18
-16 21 -15 3 0 7 0 10 0 3 0 1 -9 -5 -20 -9 -16 -8 -18 5 -14 8 4 15 12 15 20
0 8 5 14 11 14 7 0 8 -7 4 -17 -12 -33 -10 -37 27 -55 27 -13 36 -23 33 -35
-3 -10 1 -4 9 12 13 25 15 27 17 10 1 -11 2 -26 2 -33 -1 -9 6 -12 22 -8 28 7
42 -9 25 -29 -9 -11 -9 -15 -1 -15 6 0 11 4 11 9 0 5 7 12 16 15 12 5 14 1 9
-15 -6 -19 -5 -20 15 -9 21 11 21 10 16 -27 -3 -21 -3 -33 1 -28 5 6 16 16 26
24 15 12 17 11 17 -3 0 -9 -6 -16 -14 -16 -18 0 -30 -30 -16 -44 7 -7 14 -6
23 3 10 10 9 11 -5 6 -10 -4 -18 -3 -18 3 0 13 20 20 42 14 10 -2 15 -9 11
-15 -4 -6 0 -8 10 -4 9 3 19 2 22 -4 4 -5 11 -7 16 -4 5 4 9 -1 9 -9 0 -20
-10 -20 -24 -1 -8 10 -15 12 -26 5 -11 -7 -11 -10 -2 -10 7 0 11 -4 8 -9 -3
-5 0 -9 7 -8 38 1 57 -5 57 -18 0 -18 30 -20 31 -2 0 6 5 2 11 -11 6 -12 16
-21 21 -19 13 4 77 -62 77 -79 0 -6 8 -18 17 -25 15 -12 16 -12 11 3 -4 10 -1
19 8 22 9 3 12 1 9 -4 -3 -6 -1 -10 5 -10 7 0 10 -6 7 -14 -8 -21 2 -26 29
-16 15 6 24 6 24 0 0 -6 -4 -11 -10 -11 -5 -1 -14 -2 -19 -3 -5 0 -13 -5 -18
-10 -4 -5 3 -6 19 -2 16 3 30 1 34 -5 4 -8 9 -7 15 2 6 10 9 11 9 2 0 -7 7
-13 15 -13 8 0 15 -5 15 -11 0 -8 4 -8 13 0 11 8 13 6 12 -10 -1 -11 -8 -25
-16 -31 -12 -8 -12 -9 1 -5 16 5 43 -17 33 -27 -4 -3 -1 -6 5 -6 7 0 12 5 12
10 0 6 7 10 15 10 8 0 15 6 15 13 0 6 5 4 11 -7 9 -14 8 -20 -2 -27 -7 -4 -11
-11 -7 -14 3 -3 12 0 20 7 29 27 52 17 26 -11 -11 -11 -8 -12 15 -7 20 5 27 3
27 -8 0 -12 10 -11 56 5 40 14 60 17 67 10 8 -8 7 -11 -3 -12 -30 -1 -46 -7
-78 -26 -31 -19 -32 -21 -11 -26 16 -4 20 -11 16 -26 -3 -13 1 -21 14 -24 16
-4 17 -2 9 14 -8 14 -6 20 10 29 11 6 20 8 20 4 0 -3 8 0 18 7 16 13 16 13 2
-5 -14 -18 -13 -19 10 -13 23 6 23 5 -5 -18 -19 -16 -25 -24 -15 -25 13 0 13
-2 0 -9 -8 -6 -17 -8 -20 -6 -3 2 -6 -4 -6 -14 0 -10 6 -18 12 -18 7 0 10 6 7
14 -9 23 7 14 18 -9 9 -22 9 -22 4 3 -2 15 2 34 10 45 13 16 14 17 9 1 -5 -13
-2 -16 12 -14 11 1 26 6 34 11 8 4 4 -2 -9 -13 -18 -17 -27 -19 -38 -10 -10 9
-12 9 -8 -2 8 -20 50 -38 68 -28 8 5 23 10 33 12 11 2 26 7 34 10 8 3 24 8 35
11 11 3 -1 4 -27 2 -56 -4 -60 0 -15 14 31 10 30 10 -12 6 -45 -5 -46 9 -1 17
21 4 20 4 -7 6 -17 0 -43 -3 -57 -9 -15 -5 -26 -6 -26 -1 0 5 19 12 41 16 40
7 41 8 23 25 -53 51 -1078 841 -1097 844 -12 3 -29 3 -37 0z"/>
<path d="M8143 3620 c-13 -5 -23 -12 -23 -16 0 -3 10 -4 23 -1 20 5 19 4 -7
-17 -25 -21 -27 -28 -21 -57 5 -23 10 -29 14 -19 3 9 11 15 18 15 15 0 30 -15
15 -15 -7 0 -12 -4 -12 -10 0 -5 14 -7 33 -4 22 4 28 3 18 -4 -18 -13 -5 -54
17 -50 9 1 23 -1 31 -6 11 -7 12 -6 6 5 -7 11 -6 12 7 2 8 -7 19 -9 23 -5 5 4
5 1 0 -7 -5 -9 -3 -18 6 -25 8 -6 14 -17 14 -25 0 -8 5 -16 12 -18 7 -3 9 3 6
16 -6 24 5 27 32 7 11 -7 23 -13 27 -12 3 0 10 -2 14 -6 4 -5 2 -8 -5 -8 -7 0
-9 -5 -5 -12 4 -7 -2 -4 -14 6 -12 11 -24 17 -27 15 -9 -9 8 -49 20 -49 7 0
16 -7 19 -16 3 -8 11 -12 17 -8 8 4 9 3 5 -5 -4 -6 0 -14 10 -18 10 -4 19 -2
22 5 2 7 8 12 13 12 6 0 7 -4 4 -10 -3 -5 1 -10 10 -10 11 0 15 -5 12 -14 -4
-10 -1 -13 8 -9 8 3 12 10 8 16 -3 6 -1 7 6 3 6 -4 9 -12 6 -17 -4 -5 4 -9 16
-9 18 0 19 -2 9 -15 -10 -12 -9 -16 5 -21 13 -6 14 -9 3 -16 -9 -6 -3 -7 17
-3 24 5 28 4 18 -6 -17 -17 -16 -26 2 -26 8 0 12 5 8 10 -3 5 5 4 17 -3 21
-11 22 -10 16 6 -4 13 0 11 14 -6 11 -14 18 -31 15 -37 -2 -7 0 -13 5 -13 6 0
10 -6 10 -14 0 -8 4 -18 10 -21 7 -4 7 3 0 19 -14 37 2 32 19 -5 8 -18 22 -34
32 -36 24 -7 24 -20 2 -27 -10 -2 -1 -3 20 0 29 3 37 0 37 -12 0 -8 4 -13 9
-9 11 6 37 -34 32 -50 -1 -5 1 -7 5 -3 4 4 13 3 21 -3 10 -9 13 -8 13 5 0 10
-4 14 -10 11 -5 -3 -10 -1 -10 4 0 24 37 1 39 -24 1 -5 6 -11 11 -11 6 -1 13
-3 18 -4 4 -1 11 -2 15 -1 5 1 6 -3 2 -9 -8 -12 20 -42 30 -32 4 4 5 -3 1 -14
-8 -25 6 -33 47 -28 21 2 27 -1 23 -11 -3 -8 -1 -17 4 -20 4 -3 11 1 13 7 3 8
6 6 6 -4 1 -10 -3 -18 -9 -18 -5 0 -10 -4 -10 -9 0 -4 11 -6 25 -3 18 3 25 0
25 -12 0 -20 -4 -21 86 10 43 14 86 23 97 20 11 -3 16 -1 11 3 -26 22 -687
533 -733 566 -49 35 -121 59 -106 35 3 -6 14 -10 23 -10 11 0 7 -5 -11 -15
-26 -13 -31 -13 -53 3 -13 9 -24 20 -24 25 0 12 21 8 36 -8 22 -22 40 -18 20
4 -16 18 -16 19 9 25 25 6 23 9 -44 61 -38 30 -77 55 -86 55 -9 0 -13 5 -9 11
5 8 -6 10 -34 7 -22 -2 -38 0 -36 4 3 5 15 8 27 8 21 1 20 2 -8 25 -31 26 -64
30 -102 15z"/>
</g>
</svg>
